<?xml version="1.0" encoding="utf-8"?>
<svg version="1.1" baseProfile="tiny"
	xmlns="http://www.w3.org/2000/svg"
	xmlns:xlink="http://www.w3.org/1999/xlink" x="0px" y="0px" viewBox="0 0 512 512" xml:space="preserve">
	<g>
		<path id="Shape" fill="#E64C3C" d="M48.5,196.9l32.3,6.5c13.6,39,36.8,73.9,67.4,101.6v-0.2c-1.4-10-2.6-19.4-3.5-28.3
			c-2.1-21.3-3.2-42.7-3.2-64.1c58.2,0,116.3,0.1,174.5,0.1c59.7,0,119.5-0.1,179.2-0.1c0,29.7,0,295.3-176.8,295.3
			c-50.5,0-168.4-16.9-235.8-92.8C19.1,343.4,45.2,212,48.5,196.9z"/>
		<path id="Shape_2_" fill="#ECF0F1" d="M124.6,195.5v-26.3c0-9.3,7.5-16.9,16.8-16.9h353.7c9.3,0,16.8,7.6,16.8,16.9v26.3
			c0,9.3-7.6,16.8-16.8,16.9H141.5C132.2,212.3,124.6,204.8,124.6,195.5z"/>
		<path id="Shape_3_" fill="#ECF0F1" d="M23.6,153.3c0-27.2,21.3-49.5,48.4-50.7c27.1-1.1,50.3,19.4,52.5,46.4
			c0.1,1.3,0.2,2.8,0.2,4.2c0,28-22.6,50.6-50.5,50.6S23.6,181.2,23.6,153.3z"/>
	</g>
	<g>
		<path fill="#D4D6D6" d="M385.6,138.7c-8.2-37.4-16.4-74.9-24.6-112.3l0,0c-34.3,6.8-68.6,13.7-102.9,20.5
			c-0.6,0.1-1.1,0.4-1.6,0.7c0,0,0,0-0.1,0c-0.4,0.3-0.8,0.7-1.1,1.2l-34.4,53c-0.3,0.5-0.5,1-0.6,1.5c0,0,0,0,0,0.1
			c-0.2,1.2,0,2.4,0.7,3.3c0,0,0,0,0,0.1c0.3,0.4,0.7,0.8,1.2,1.1c0.5,0.3,1,0.5,1.5,0.6c0,0,0,0,0.1,0c0.6,0.1,1.2,0.1,1.7,0
			l85.6-18.2 M270.4,53.3l52.2-11.1c0,0,0,0,0,0c0,0,0,0,0,0l32.6-6.9l18,84.9L270.4,53.3z M232.2,99.5l26.2-40.4l40.4,26.2
			L232.2,99.5z"/>
		<path fill="#FFFFFF" d="M269.6,52.9l52.9-11.3c0,0,0,0,0,0c0,0,0,0,0,0l33-7l18.3,86L269.6,52.9z"/>
		<polygon fill="#FFFFFF" points="231.3,99.7 259.4,56.4 303.6,85.2 		"/>
	</g>
</svg>
